<svg version="1.2" xmlns="http://www.w3.org/2000/svg" viewBox="0 0 956 388" width="956" height="388">
	<style>
		.s0 { fill: #02509e } 
		.s1 { fill: #fefefe } 
		.s2 { fill: #f69024 } 
	</style>
	<g id="Capa 1">
		<path id="&lt;Path&gt;" class="s0" d="m1048.14 1006.14h-1120.28v-560.14h1120.28z"/>
		<g id="&lt;Group&gt;">
			<g id="&lt;Group&gt;">
				<g id="&lt;Group&gt;">
					<path id="&lt;Compound Path&gt;" fill-rule="evenodd" class="s1" d="m339.88 733.54h-279.94c4.13 22.01 22.3 30.36 45.36 30.36h163.88c0.58 0.06 0.97-0.06 1.54-0.06l68.34 0.06c-0.05 12.35-10.08 22.41-22.41 22.41h-220.19c-34.41 0-62.27-27.9-62.27-62.42 0-34.48 27.86-62.37 62.33-62.37l181.76 0.08c30.03 0 55.04 21.22 61.02 49.51 0.85 4.11 1.35 8.42 1.29 12.83 0 3.37-0.21 6.47-0.71 9.6zm-24.81-22.43c-4.66-19.94-21.06-27.46-45.89-27.42l-163.88-0.04c-24.73 0-40.2 9.17-44.75 27.46z"/>
					<path id="&lt;Compound Path&gt;" fill-rule="evenodd" class="s1" d="m896.43 724.07c0 34.45-27.94 62.29-62.33 62.29h-191.91c-34.39 0-62.3-27.91-62.3-62.35 0-34.48 27.91-62.35 62.38-62.35h191.83c34.39 0.07 62.33 27.93 62.33 62.41zm-24.23-0.34c0-29.43-17.77-39.97-47.15-40.04h-173.98c-29.91 0-46.23 13.45-46.23 40.04 0 29.43 19.94 40.3 46.23 40.3h173.98c29.32 0 47.15-10.8 47.15-40.3z"/>
					<path id="&lt;Path&gt;" class="s1" d="m460.59 764.62l-109.19-103.24-34.09-0.08 124.48 120.11 18.52 17.42 141.39-137.45h-34.01z"/>
					<path id="&lt;Path&gt;" class="s2" d="m142.01 862.93c-27.43-30.65 21.49-113.48 93.29-185.39 72.08-71.82 153.62-118.06 184.15-87.58 17.07 17.1 14.43 54-4 95.66 25.04-48.79 29.83-91.79 8.3-113.42-36.05-36.02-132.07 1.6-214.56 84.02-82.41 82.34-119.99 178.44-84.01 214.48 26.69 26.72 86.55 12.88 149.4-29.83-58.86 36.57-111.88 45.15-132.57 22.06z"/>
				</g>
				<g id="&lt;Group&gt;">
					<path id="&lt;Compound Path&gt;" fill-rule="evenodd" class="s1" d="m362.12 850.77q0 10.75-5.44 16.89-5.42 6.15-15.09 6.16-9.89 0-15.25-6.05-5.38-6.04-5.38-17.06 0-10.92 5.39-16.93 5.39-6.02 15.3-6.02 9.63 0.01 15.05 6.12 5.42 6.12 5.42 16.89zm-35.65 0q0 9.09 3.87 13.79 3.87 4.7 11.25 4.7 7.43 0 11.22-4.69 3.8-4.68 3.8-13.8 0-9.02-3.77-13.69-3.79-4.67-11.19-4.67-7.44 0.01-11.31 4.7-3.87 4.7-3.87 13.66z"/>
					<path id="&lt;Compound Path&gt;" class="s1" d="m417.19 873.2h-5.19v-40.11h-14.17v-4.62h33.53v4.62h-14.17z"/>
					<path id="&lt;Compound Path&gt;" fill-rule="evenodd" class="s1" d="m474.63 854.6v18.6h-5.19v-44.73h12.26q8.24 0 12.17 3.15 3.93 3.15 3.93 9.48 0 8.88-9 12l12.15 20.1h-6.15l-10.84-18.6zm0-4.47h7.13q5.51 0 8.09-2.19 2.56-2.18 2.56-6.56 0-4.43-2.61-6.4-2.62-1.96-8.4-1.96h-6.77z"/>
					<path id="&lt;Compound Path&gt;" fill-rule="evenodd" class="s1" d="m567.62 873.2l-5.57-14.22h-17.92l-5.51 14.22h-5.27l17.69-44.92h4.37l17.6 44.92zm-7.19-18.91l-5.2-13.86q-1.02-2.63-2.08-6.46-0.68 2.94-1.93 6.46l-5.27 13.86z"/>
					<path id="&lt;Compound Path&gt;" class="s1" d="m683.65 828.47h5.6l-16.12 44.73h-5.14l-16.04-44.73h5.51l10.28 28.94q1.78 4.99 2.82 9.7 1.1-4.95 2.87-9.88z"/>
					<path id="&lt;Compound Path&gt;" class="s1" d="m726.74 873.2v-44.73h5.2v44.73z"/>
					<path id="&lt;Compound Path&gt;" fill-rule="evenodd" class="s1" d="m811.26 850.4q0 11.09-6.01 16.95-6.02 5.85-17.31 5.85h-12.39v-44.73h13.71q10.43 0 16.21 5.77 5.79 5.79 5.79 16.16zm-5.51 0.19q0-8.75-4.4-13.19-4.38-4.43-13.04-4.44h-7.56v35.74h6.34q9.3 0.01 13.98-4.57 4.68-4.57 4.68-13.54z"/>
					<path id="&lt;Compound Path&gt;" fill-rule="evenodd" class="s1" d="m880.69 873.2l-5.57-14.22h-17.94l-5.5 14.22h-5.26l17.68-44.92h4.38l17.59 44.92zm-7.19-18.91l-5.2-13.86q-1.01-2.63-2.08-6.46-0.68 2.94-1.93 6.46l-5.27 13.86z"/>
					<path id="&lt;Compound Path&gt;" class="s1" d="m922.06 869.96q0-2.05 0.93-3.11 0.94-1.05 2.68-1.05 1.78 0 2.77 1.05 0.99 1.06 0.99 3.11 0 1.98-1.01 3.06-1.01 1.07-2.75 1.07-1.56 0-2.59-0.96-1.02-0.97-1.02-3.17z"/>
				</g>
			</g>
		</g>
		<g id="&lt;Group&gt;">
			<g id="&lt;Group&gt;">
				<g id="&lt;Group&gt;">
					<path id="&lt;Compound Path&gt;" fill-rule="evenodd" class="s0" d="m339.88 206.75h-279.94c4.13 22.01 22.3 30.36 45.36 30.36h163.88c0.58 0.06 0.97-0.05 1.54-0.05l68.34 0.05c-0.05 12.36-10.08 22.41-22.41 22.41h-220.19c-34.41 0-62.27-27.89-62.27-62.42 0-34.48 27.86-62.37 62.33-62.37l181.76 0.09c30.03 0 55.04 21.21 61.02 49.5 0.85 4.11 1.35 8.42 1.29 12.83 0 3.37-0.21 6.47-0.71 9.6zm-24.81-22.43c-4.66-19.94-21.06-27.46-45.89-27.41l-163.88-0.05c-24.73 0-40.2 9.17-44.75 27.46z"/>
					<path id="&lt;Compound Path&gt;" fill-rule="evenodd" class="s0" d="m896.43 197.28c0 34.45-27.94 62.29-62.33 62.29h-191.91c-34.39 0-62.3-27.9-62.3-62.34 0-34.49 27.91-62.36 62.38-62.36h191.83c34.39 0.07 62.33 27.94 62.33 62.41zm-24.23-0.34c0-29.43-17.77-39.97-47.15-40.03h-173.98c-29.91 0-46.23 13.44-46.23 40.03 0 29.43 19.94 40.3 46.23 40.3h173.98c29.32 0 47.15-10.8 47.15-40.3z"/>
					<path id="&lt;Path&gt;" class="s0" d="m460.59 237.83l-109.19-103.24-34.09-0.08 124.48 120.12 18.52 17.41 141.39-137.45h-34.01z"/>
					<path id="&lt;Path&gt;" class="s2" d="m142.01 336.15c-27.43-30.65 21.49-113.49 93.29-185.4 72.08-71.82 153.62-118.06 184.15-87.57 17.07 17.09 14.43 53.99-4 95.65 25.04-48.79 29.83-91.79 8.3-113.42-36.05-36.02-132.07 1.6-214.56 84.02-82.41 82.34-119.99 178.44-84.01 214.48 26.69 26.73 86.55 12.88 149.4-29.83-58.86 36.58-111.88 45.15-132.57 22.07z"/>
				</g>
				<g id="&lt;Group&gt;">
					<path id="&lt;Compound Path&gt;" fill-rule="evenodd" class="s0" d="m362.12 323.98q0 10.75-5.44 16.89-5.42 6.16-15.09 6.16-9.89 0-15.25-6.05-5.38-6.04-5.38-17.06 0-10.92 5.39-16.93 5.39-6.02 15.3-6.02 9.63 0.01 15.05 6.12 5.42 6.12 5.42 16.89zm-35.65 0q0 9.09 3.87 13.79 3.87 4.7 11.25 4.7 7.43 0 11.22-4.68 3.8-4.69 3.8-13.81 0-9.02-3.77-13.69-3.79-4.66-11.19-4.66-7.44 0-11.31 4.7-3.87 4.69-3.87 13.65z"/>
					<path id="&lt;Compound Path&gt;" class="s0" d="m417.19 346.41h-5.19v-40.11h-14.17v-4.62h33.53v4.62h-14.17z"/>
					<path id="&lt;Compound Path&gt;" fill-rule="evenodd" class="s0" d="m474.63 327.81v18.6h-5.19v-44.73h12.26q8.24 0 12.17 3.15 3.93 3.15 3.93 9.49 0 8.87-9 11.99l12.15 20.1h-6.15l-10.84-18.6zm0-4.47h7.13q5.51 0 8.09-2.19 2.56-2.18 2.56-6.56 0-4.43-2.61-6.4-2.62-1.95-8.4-1.96h-6.77z"/>
					<path id="&lt;Compound Path&gt;" fill-rule="evenodd" class="s0" d="m567.62 346.41l-5.57-14.22h-17.92l-5.51 14.22h-5.27l17.69-44.92h4.37l17.6 44.92zm-7.19-18.9l-5.2-13.87q-1.02-2.63-2.08-6.46-0.68 2.94-1.93 6.46l-5.27 13.87z"/>
					<path id="&lt;Compound Path&gt;" class="s0" d="m683.65 301.68h5.6l-16.12 44.73h-5.14l-16.04-44.73h5.51l10.28 28.94q1.78 4.99 2.82 9.71 1.1-4.96 2.87-9.89z"/>
					<path id="&lt;Compound Path&gt;" class="s0" d="m726.74 346.41v-44.73h5.2v44.73z"/>
					<path id="&lt;Compound Path&gt;" fill-rule="evenodd" class="s0" d="m811.26 323.61q0 11.09-6.01 16.95-6.02 5.85-17.31 5.85h-12.39v-44.73h13.71q10.43 0 16.21 5.77 5.79 5.8 5.79 16.16zm-5.51 0.19q0-8.75-4.4-13.19-4.38-4.43-13.04-4.43h-7.56v35.73h6.34q9.3 0.01 13.98-4.57 4.68-4.57 4.68-13.54z"/>
					<path id="&lt;Compound Path&gt;" fill-rule="evenodd" class="s0" d="m880.69 346.41l-5.57-14.22h-17.94l-5.5 14.22h-5.26l17.68-44.92h4.38l17.59 44.92zm-7.19-18.9l-5.2-13.87q-1.01-2.63-2.08-6.46-0.68 2.94-1.93 6.46l-5.27 13.87z"/>
					<path id="&lt;Compound Path&gt;" class="s0" d="m922.06 343.18q0-2.06 0.93-3.12 0.94-1.05 2.68-1.05 1.78 0 2.77 1.05 0.99 1.06 0.99 3.12 0 1.97-1.01 3.05-1.01 1.07-2.75 1.07-1.56 0-2.59-0.96-1.02-0.96-1.02-3.16z"/>
				</g>
			</g>
		</g>
	</g>
</svg>